<svg xmlns="http://www.w3.org/2000/svg" width="430" height="430" style="width:100%;height:100%;transform:translate3d(0,0,0);content-visibility:visible" viewBox="0 0 430 430"><defs><clipPath id="r"><path d="M0 0h430v430H0z"/></clipPath><clipPath id="W"><path d="M0 0h430v430H0z"/></clipPath><clipPath id="Y"><path d="M0 0h430v430H0z"/></clipPath><clipPath id="U"><path d="M0 0h430v430H0z"/></clipPath><clipPath id="N"><path d="M0 0h430v430H0z"/></clipPath><clipPath id="S"><path d="M0 0h430v430H0z"/></clipPath><clipPath id="P"><path d="M0 0h430v430H0z"/></clipPath><clipPath id="I"><path d="M0 0h430v430H0z"/></clipPath><clipPath id="J"><path d="M0 0h430v430H0z"/></clipPath><clipPath id="L"><path d="M0 0h430v430H0z"/></clipPath><clipPath id="C"><path d="M0 0h430v430H0z"/></clipPath><clipPath id="D"><path d="M0 0h430v430H0z"/></clipPath><clipPath id="z"><path d="M0 0h430v430H0z"/></clipPath><clipPath id="A"><path d="M0 0h430v430H0z"/></clipPath><clipPath id="s"><path d="M0 0h430v430H0z"/></clipPath><clipPath id="t"><path d="M0 0h430v430H0z"/></clipPath><clipPath id="x"><path d="M0 0h430v430H0z"/></clipPath><clipPath id="u"><path d="M0 0h430v430H0z"/></clipPath><mask id="Z" mask-type="alpha"><use xmlns:ns1="http://www.w3.org/1999/xlink" ns1:href="#a"/></mask><mask id="X" mask-type="alpha"><use xmlns:ns2="http://www.w3.org/1999/xlink" ns2:href="#b"/></mask><mask id="V" mask-type="alpha"><use xmlns:ns3="http://www.w3.org/1999/xlink" ns3:href="#c"/></mask><mask id="T" mask-type="alpha"><use xmlns:ns4="http://www.w3.org/1999/xlink" ns4:href="#d"/></mask><mask id="R" mask-type="alpha"><use xmlns:ns5="http://www.w3.org/1999/xlink" ns5:href="#e"/></mask><mask id="Q" mask-type="alpha"><use xmlns:ns6="http://www.w3.org/1999/xlink" ns6:href="#f"/></mask><mask id="O" mask-type="alpha"><use xmlns:ns7="http://www.w3.org/1999/xlink" ns7:href="#g"/></mask><mask id="K" mask-type="alpha"><use xmlns:ns8="http://www.w3.org/1999/xlink" ns8:href="#h"/></mask><mask id="M" mask-type="alpha"><use xmlns:ns9="http://www.w3.org/1999/xlink" ns9:href="#i"/></mask><mask id="H" mask-type="alpha"><use xmlns:ns10="http://www.w3.org/1999/xlink" ns10:href="#j"/></mask><mask id="G" mask-type="alpha"><use xmlns:ns11="http://www.w3.org/1999/xlink" ns11:href="#k"/></mask><mask id="F" mask-type="alpha"><use xmlns:ns12="http://www.w3.org/1999/xlink" ns12:href="#l"/></mask><mask id="E" mask-type="alpha"><use xmlns:ns13="http://www.w3.org/1999/xlink" ns13:href="#m"/></mask><mask id="B" mask-type="alpha"><use xmlns:ns14="http://www.w3.org/1999/xlink" ns14:href="#n"/></mask><mask id="y" mask-type="alpha"><g filter="url(#o)"><path fill="#fff" d="M0 0h430v430H0z" opacity="0"/><use xmlns:ns15="http://www.w3.org/1999/xlink" ns15:href="#p"/></g></mask><mask id="v" mask-type="alpha"><use xmlns:ns16="http://www.w3.org/1999/xlink" ns16:href="#q"/></mask><path id="a" style="display:none"/><path id="d" style="display:none"/><path id="f" style="display:none"/><path id="h" style="display:none"/><path id="i" style="display:none"/><path id="n" style="display:none"/><path id="p" class="tertiary" style="display:none"/><path id="q" class="tertiary" style="display:none"/><path id="b" style="display:none"/><path id="c" fill="red" d="M95.375 95.375c66.021-66.02 173.229-66.02 239.25 0 66.02 66.021 66.02 173.229 0 239.25-66.021 66.02-173.229 66.02-239.25 0-66.02-66.021-66.02-173.229 0-239.25" style="display:block"/><path id="e" style="display:none"/><path id="g" style="display:none"/><path id="m" style="display:none"/><g id="j" style="display:none"><path class="primary"/><path class="primary" style="mix-blend-mode:multiply"/></g><g id="k" style="display:none"><path class="secondary"/><path class="secondary" style="mix-blend-mode:multiply"/></g><g id="l" style="display:none"><path class="primary"/><path class="primary" style="mix-blend-mode:multiply"/></g><filter id="o" width="100%" height="100%" x="0%" y="0%" filterUnits="objectBoundingBox"><feComponentTransfer in="SourceGraphic"><feFuncA tableValues="1.0 0.0" type="table"/></feComponentTransfer></filter></defs><g clip-path="url(#r)"><g clip-path="url(#s)" style="display:none"><g clip-path="url(#t)" style="display:none"><g style="display:none"><path class="secondary"/><path class="secondary" style="mix-blend-mode:multiply"/></g><g clip-path="url(#u)" mask="url(#v)" style="display:none"><path class="primary"/><path class="primary" style="mix-blend-mode:multiply"/></g><g clip-path="url(#x)" mask="url(#y)" style="display:none"><path class="secondary"/><path class="secondary" style="mix-blend-mode:multiply"/></g></g></g><g clip-path="url(#z)" style="display:none"><g clip-path="url(#A)" style="display:none"><g style="display:none"><path class="secondary"/><path class="secondary" style="mix-blend-mode:multiply"/><path class="secondary" style="mix-blend-mode:multiply"/></g><g style="display:none"><path class="secondary"/><path class="secondary" style="mix-blend-mode:multiply"/></g><g style="display:none"><path class="secondary"/><path class="secondary" style="mix-blend-mode:multiply"/></g><g mask="url(#B)" style="display:none"><path class="primary"/><path class="primary" style="mix-blend-mode:multiply"/></g></g></g><g clip-path="url(#C)" style="display:none"><g style="display:none"><path class="secondary"/><path class="secondary" style="mix-blend-mode:multiply"/></g><g clip-path="url(#D)" mask="url(#E)" style="display:none"><g style="display:none"><path class="primary"/><path class="primary" style="mix-blend-mode:multiply"/></g><g style="display:none"><path class="primary"/><path class="primary" style="mix-blend-mode:multiply"/></g><g mask="url(#F)" style="mix-blend-mode:multiply;display:none"><path class="primary"/></g><g mask="url(#G)" style="mix-blend-mode:multiply;display:none"><path class="primary"/></g><g mask="url(#H)" style="display:none"><path class="primary"/><path class="primary" style="mix-blend-mode:multiply"/></g><g style="display:none"><path class="primary"/><path class="primary" style="mix-blend-mode:multiply"/><path class="primary"/><path class="primary" style="mix-blend-mode:multiply"/></g><g style="display:none"><path class="primary"/><path class="primary" style="mix-blend-mode:multiply"/></g><path fill="none" class="secondary" style="display:none"/></g></g><g clip-path="url(#I)" style="display:none"><g clip-path="url(#J)" style="display:none"><g style="display:none"><path class="secondary"/><path class="secondary" style="mix-blend-mode:multiply"/><path class="secondary" style="mix-blend-mode:multiply"/></g><g style="display:none"><path class="secondary"/><path class="secondary" style="mix-blend-mode:multiply"/></g><g style="display:none"><path class="secondary"/><path class="secondary" style="mix-blend-mode:multiply"/></g><g mask="url(#K)" style="display:none"><path class="primary"/><path class="primary" style="mix-blend-mode:multiply"/></g></g><g clip-path="url(#L)" style="display:none"><g style="display:none"><path class="secondary"/><path class="secondary" style="mix-blend-mode:multiply"/><path class="secondary" style="mix-blend-mode:multiply"/></g><g style="display:none"><path class="secondary"/><path class="secondary" style="mix-blend-mode:multiply"/></g><g style="display:none"><path class="secondary"/><path class="secondary" style="mix-blend-mode:multiply"/></g><g mask="url(#M)" style="display:none"><path class="primary"/><path class="primary" style="mix-blend-mode:multiply"/></g></g></g><g clip-path="url(#N)" style="display:none"><g style="display:none"><path class="secondary"/><path class="secondary" style="mix-blend-mode:multiply"/></g><g mask="url(#O)" style="display:none"><g clip-path="url(#P)" mask="url(#Q)" style="display:none"><path class="primary"/><path class="primary" style="mix-blend-mode:multiply"/></g></g><g mask="url(#R)" style="display:none"><g clip-path="url(#S)" mask="url(#T)" style="display:none"><path class="primary"/><path class="primary" style="mix-blend-mode:multiply"/></g></g></g><g clip-path="url(#U)" style="display:block"><g style="display:block"><path d="M215 46.75c92.923 0 168.25 75.327 168.25 168.25S307.924 383.252 215 383.252 46.75 307.922 46.75 215 122.076 46.75 215 46.75" class="secondary"/><path fill-opacity=".5" d="M170.146 99.071c16.636 0 32.704-2.432 47.868-6.961-24.398 13.947-52.652 21.918-82.768 21.918-92.242 0-167.018-74.777-167.018-167.019 0-75.605 50.236-139.477 119.15-160.057-50.33 28.771-84.251 82.974-84.251 145.1 0 92.242 74.777 167.019 167.019 167.019" class="secondary" style="mix-blend-mode:multiply" transform="translate(78.878 268.517)scale(1.00738)"/></g><g fill="#EBE6EE" mask="url(#V)" style="display:block"><path d="M280.001 112.809a2.343 2.343 0 0 0-2.343-2.343l-45.652-.155c-25.881.564-57.506 31.939-56.943 60.234l.122 49.799-37.819-.032a2.345 2.345 0 0 0-2.344 2.344l-.021 49.59c0 1.294 1.495 2.737 2.789 2.737l37.382.014.111 141.487c0-.06 1.049-.109 2.343-.109l49.842.002c1.294 0 2.344.049 2.344.109l-.108-141.475 37.661.142c1.057 0 1.957-.832 2.235-1.852l14.243-49.903a2.343 2.343 0 0 0-2.261-2.96l-51.868-.162-.039-38.68c0-8.629 6.977-16.749 15.606-16.749l32.432-.003a2.343 2.343 0 0 0 2.343-2.343z" class="primary"/><path fill-opacity=".5" d="m12.751 5.089-29.562.018-.17-49.482c-.666-21.25 21.962-57.125 56.857-60h35c-38.66 0-61.605 33.232-62.189 58.857zm-39.845.219-.198 54.665-26.625.063c-1.657 0-3.196-1.299-3.196-2.956l-.013-48.866a3 3 0 0 1 3-3zm40.575 54.228-.491 141.842-27.375-.003c-1.657 0-2.512.04-2.437.104l.053-141.943z" class="primary" style="mix-blend-mode:multiply" transform="translate(192.144 215)"/></g></g><g clip-path="url(#W)" style="display:none"><g style="display:none"><path class="secondary"/><path class="secondary" style="mix-blend-mode:multiply"/></g><g mask="url(#X)" style="display:none"><g clip-path="url(#Y)" mask="url(#Z)" style="display:none"><path class="primary"/><path class="primary" style="mix-blend-mode:multiply"/></g></g></g></g></svg>