<svg xmlns="http://www.w3.org/2000/svg" width="430" height="430" fill="none" viewBox="0 0 430 430"><circle cx="215" cy="215" r="167.5" fill="#000"/><path fill="#000" d="M298.007 360.518c-15.208 4.542-31.323 6.981-48.007 6.981-92.508 0-167.5-74.992-167.5-167.5 0-62.305 34.018-116.664 84.493-145.518C97.881 75.12 47.5 139.176 47.5 214.999c0 92.508 74.992 167.5 167.5 167.5 30.203 0 58.538-7.993 83.007-21.981" opacity=".5" style="mix-blend-mode:multiply"/><path fill="#545454" d="M320.35 236.498A108 108 0 0 0 322.5 215c0-6.515-.58-12.894-1.69-19.089-.251-1.405-1.485-2.409-2.912-2.409L226.6 193.5a3 3 0 0 0-3 3v37a3 3 0 0 0 3 3h43.494c-5.143 13.169-14.871 24.042-27.222 30.656l35.841 34.437c21.053-15.516 36.244-38.526 41.637-65.093z"/><path fill="#f24c00" d="m158.564 197.319-38.681-32.456C137.903 130.749 173.736 107.5 215 107.5c25.276 0 48.514 8.723 66.869 23.323 1.367 1.088 1.457 3.116.23 4.36l-30.049 30.464c-1.051 1.065-2.72 1.187-3.959.349-9.443-6.39-20.831-10.121-33.091-10.121-26.495 0-48.92 17.427-56.436 41.444"/><path fill="#ffc738" d="M119.883 164.862C111.977 179.832 107.5 196.893 107.5 215c0 18.731 4.791 36.344 13.214 51.679l38.429-32.245A59 59 0 0 1 155.875 215c0-6.159.942-12.098 2.689-17.681z"/><path fill="#545454" d="M260.843 284.423c22.501-14.888 37.342-40.422 37.342-69.423H223.6v18.5a3 3 0 0 0 3 3h43.494c-5.143 13.169-14.871 24.042-27.222 30.656z" opacity=".5" style="mix-blend-mode:multiply"/><path fill="#2ca58d" d="m284.347 297.145-34.428-34.428c-9.785 7.173-21.857 11.408-34.919 11.408-25.846 0-47.818-16.583-55.857-39.69l-38.429 32.245c18.275 33.27 53.647 55.82 94.286 55.82 26.427 0 50.628-9.536 69.347-25.355"/><path fill="#2ca58d" d="M267.075 279.872c-14.255 11.456-32.364 18.312-52.075 18.312-33.184 0-61.83-19.431-75.18-47.536l19.323-16.214c8.039 23.107 30.011 39.69 55.857 39.69 13.062 0 25.134-4.235 34.919-11.408z" opacity=".5" style="mix-blend-mode:multiply"/><path fill="#ffc738" d="M139.82 250.649c-5.133-10.805-8.005-22.891-8.005-35.649 0-12.125 2.595-23.645 7.259-34.034l19.49 16.354a59.1 59.1 0 0 0-2.689 17.68 59 59 0 0 0 3.268 19.434z" opacity=".5" style="mix-blend-mode:multiply"/><path fill="#f24c00" d="m139.074 180.965 19.49 16.354c7.516-24.017 29.941-41.444 56.436-41.444 12.26 0 23.648 3.731 33.091 10.121 1.239.838 2.908.716 3.959-.349l15.182-15.392c-14.278-11.533-32.448-18.44-52.232-18.44-33.816 0-62.919 20.178-75.926 49.15" opacity=".5" style="mix-blend-mode:multiply"/></svg>